<?xml version="1.0" encoding="UTF-8" standalone="no"?>
<!DOCTYPE svg PUBLIC "-//W3C//DTD SVG 1.1//EN" "http://www.w3.org/Graphics/SVG/1.1/DTD/svg11.dtd">
<svg width="100%" height="100%" viewBox="0 0 450 93" version="1.1" xmlns="http://www.w3.org/2000/svg" xmlns:xlink="http://www.w3.org/1999/xlink" xml:space="preserve" xmlns:serif="http://www.serif.com/" style="fill-rule:evenodd;clip-rule:evenodd;stroke-linejoin:round;stroke-miterlimit:2;">
    <g transform="matrix(1,0,0,1,-1117.94,-882.497)">
        <g transform="matrix(0.938828,0,0,0.938828,60.5683,-85.297)">
            <g opacity="0.59">
                <circle cx="1182.28" cy="1079.96" r="49.064" style="fill:none;"/>
                <g>
                    <clipPath id="_clip1">
                        <circle cx="1182.28" cy="1079.96" r="49.064"/>
                    </clipPath>
                    <g clip-path="url(#_clip1)">
                        <g transform="matrix(1,0,0,0.973225,0,27.6013)">
                            <g opacity="0.78">
                                <g transform="matrix(1.06516,0,0,0.765557,-308.724,187.699)">
                                    <g transform="matrix(1,0,0,1.06451,-0.253724,-71.3247)">
                                        <rect x="1349.34" y="1101.62" width="101.431" height="3.842" style="fill:white;"/>
                                    </g>
                                    <g transform="matrix(1,0,0,1.06451,-0.253724,-63.2997)">
                                        <rect x="1349.34" y="1101.62" width="101.431" height="3.842" style="fill:white;"/>
                                    </g>
                                    <g transform="matrix(1,0,0,1.06451,-0.253724,-55.3368)">
                                        <rect x="1349.34" y="1101.62" width="101.431" height="3.842" style="fill:white;"/>
                                    </g>
                                    <g transform="matrix(1,0,0,1.06451,-0.253724,-47.3118)">
                                        <rect x="1349.34" y="1101.62" width="101.431" height="3.842" style="fill:white;"/>
                                    </g>
                                    <g transform="matrix(1.01782,0,0,1.06451,-26.0997,-39.3492)">
                                        <rect x="1349.34" y="1101.62" width="101.431" height="3.842" style="fill:white;"/>
                                    </g>
                                    <g transform="matrix(0.996004,0,0,1.06451,5.54387,-31.3241)">
                                        <rect x="1349.34" y="1101.62" width="101.431" height="3.842" style="fill:white;"/>
                                    </g>
                                    <g transform="matrix(1,0,0,1.06451,-0.253724,-23.3612)">
                                        <rect x="1349.34" y="1101.62" width="101.431" height="3.842" style="fill:white;"/>
                                    </g>
                                    <g transform="matrix(1.06561,0,0,1.06451,-88.7817,-15.3362)">
                                        <rect x="1349.34" y="1101.62" width="101.431" height="3.842" style="fill:white;"/>
                                    </g>
                                    <g transform="matrix(1,0,0,1.06451,-0.253724,-7.22482)">
                                        <rect x="1349.34" y="1101.62" width="101.431" height="3.842" style="fill:white;"/>
                                    </g>
                                    <g transform="matrix(1,0,0,1.06451,-0.253724,0.800198)">
                                        <rect x="1349.34" y="1101.62" width="101.431" height="3.842" style="fill:white;"/>
                                    </g>
                                    <g transform="matrix(1,0,0,1.06451,-0.253724,8.76312)">
                                        <rect x="1349.34" y="1101.62" width="101.431" height="3.842" style="fill:white;"/>
                                    </g>
                                    <g transform="matrix(1,0,0,1.06451,-0.253724,16.7881)">
                                        <rect x="1349.34" y="1101.62" width="101.431" height="3.842" style="fill:white;"/>
                                    </g>
                                </g>
                                <g transform="matrix(1.06516,0,0,0.765557,-308.811,255.224)">
                                    <g transform="matrix(1,0,0,1.06451,-0.253724,-63.2997)">
                                        <rect x="1349.34" y="1101.62" width="101.431" height="3.842" style="fill:white;"/>
                                    </g>
                                    <g transform="matrix(1,0,0,1.06451,-0.253724,-55.3368)">
                                        <rect x="1349.34" y="1101.62" width="101.431" height="3.842" style="fill:white;"/>
                                    </g>
                                    <g transform="matrix(1,0,0,1.06451,-0.253724,-47.3118)">
                                        <rect x="1349.34" y="1101.62" width="101.431" height="3.842" style="fill:white;"/>
                                    </g>
                                    <g transform="matrix(1.01782,0,0,1.06451,-26.0997,-39.3492)">
                                        <rect x="1349.34" y="1101.62" width="101.431" height="3.842" style="fill:white;"/>
                                    </g>
                                    <g transform="matrix(0.996004,0,0,1.06451,5.54387,-31.3241)">
                                        <rect x="1349.34" y="1101.62" width="101.431" height="3.842" style="fill:white;"/>
                                    </g>
                                </g>
                            </g>
                        </g>
                    </g>
                </g>
            </g>
        </g>
        <g transform="matrix(0.950426,0,0,0.950426,62.0444,32.1857)">
            <g transform="matrix(3.00899,0,0,3.00899,910.151,841.763)">
                <path d="M117.931,36.065C116.886,36.065 116.038,35.924 115.387,35.641C114.737,35.358 114.249,34.966 113.923,34.465C113.598,33.964 113.409,33.398 113.355,32.769L114.603,32.769C114.635,33.281 114.806,33.694 115.115,34.009C115.425,34.324 115.833,34.556 116.339,34.705C116.846,34.854 117.403,34.929 118.011,34.929C118.907,34.929 119.617,34.772 120.139,34.457C120.662,34.142 120.923,33.676 120.923,33.057C120.923,32.684 120.793,32.382 120.531,32.153C120.27,31.924 119.923,31.734 119.491,31.585C119.059,31.436 118.587,31.3 118.075,31.177C117.563,31.054 117.049,30.924 116.531,30.785C116.014,30.646 115.539,30.47 115.107,30.257C114.675,30.044 114.329,29.769 114.067,29.433C113.806,29.097 113.675,28.668 113.675,28.145C113.675,27.281 114.009,26.577 114.675,26.033C115.342,25.489 116.337,25.217 117.659,25.217C118.598,25.217 119.371,25.358 119.979,25.641C120.587,25.924 121.043,26.294 121.347,26.753C121.651,27.212 121.819,27.708 121.851,28.241L120.619,28.241C120.555,27.708 120.289,27.257 119.819,26.889C119.35,26.521 118.63,26.337 117.659,26.337C117.062,26.337 116.577,26.396 116.203,26.513C115.83,26.63 115.545,26.782 115.347,26.969C115.15,27.156 115.017,27.35 114.947,27.553C114.878,27.756 114.843,27.948 114.843,28.129C114.843,28.481 114.974,28.766 115.235,28.985C115.497,29.204 115.843,29.385 116.275,29.529C116.707,29.673 117.185,29.804 117.707,29.921C118.23,30.038 118.75,30.169 119.267,30.313C119.785,30.457 120.259,30.638 120.691,30.857C121.123,31.076 121.47,31.356 121.731,31.697C121.993,32.038 122.123,32.476 122.123,33.009C122.123,33.99 121.75,34.745 121.003,35.273C120.257,35.801 119.233,36.065 117.931,36.065Z" style="fill:white;fill-rule:nonzero;"/>
                <path d="M128.347,36.065C127.473,36.065 126.697,35.87 126.019,35.481C125.342,35.092 124.811,34.545 124.427,33.841C124.043,33.137 123.851,32.316 123.851,31.377L123.851,25.345L125.051,25.345L125.051,31.409C125.051,32.23 125.209,32.897 125.523,33.409C125.838,33.921 126.249,34.297 126.755,34.537C127.262,34.777 127.793,34.897 128.347,34.897C128.913,34.897 129.446,34.777 129.947,34.537C130.449,34.297 130.859,33.921 131.179,33.409C131.499,32.897 131.659,32.23 131.659,31.409L131.659,25.345L132.859,25.345L132.859,31.377C132.859,32.305 132.667,33.121 132.283,33.825C131.899,34.529 131.369,35.078 130.691,35.473C130.014,35.868 129.233,36.065 128.347,36.065Z" style="fill:white;fill-rule:nonzero;"/>
                <path d="M135.323,35.937L135.323,25.345L140.091,25.345C141.222,25.345 142.113,25.652 142.763,26.265C143.414,26.878 143.739,27.708 143.739,28.753C143.739,29.798 143.414,30.628 142.763,31.241C142.113,31.854 141.222,32.161 140.091,32.161L136.523,32.161L136.523,35.937L135.323,35.937ZM136.523,31.041L140.011,31.041C140.843,31.041 141.473,30.838 141.899,30.433C142.326,30.028 142.539,29.468 142.539,28.753C142.539,28.049 142.326,27.494 141.899,27.089C141.473,26.684 140.843,26.481 140.011,26.481L136.523,26.481L136.523,31.041Z" style="fill:white;fill-rule:nonzero;"/>
                <path d="M145.371,35.937L145.371,25.345L153.163,25.345L153.163,26.497L146.571,26.497L146.571,30.049L152.459,30.049L152.459,31.217L146.571,31.217L146.571,34.785L153.163,34.785L153.163,35.937L145.371,35.937Z" style="fill:white;fill-rule:nonzero;"/>
                <path d="M155.099,35.937L155.099,25.345L160.171,25.345C161.259,25.345 162.126,25.644 162.771,26.241C163.417,26.838 163.739,27.644 163.739,28.657C163.739,29.34 163.609,29.884 163.347,30.289C163.086,30.694 162.758,31.001 162.363,31.209C161.969,31.417 161.574,31.569 161.179,31.665L163.963,35.937L162.539,35.937L159.979,31.873L156.299,31.873L156.299,35.937L155.099,35.937ZM156.299,30.737L159.963,30.737C160.347,30.737 160.737,30.678 161.131,30.561C161.526,30.444 161.859,30.233 162.131,29.929C162.403,29.625 162.539,29.201 162.539,28.657C162.539,27.985 162.31,27.454 161.851,27.065C161.393,26.676 160.785,26.481 160.027,26.481L156.299,26.481L156.299,30.737Z" style="fill:white;fill-rule:nonzero;"/>
                <path d="M170.251,36.065C169.195,36.065 168.283,35.822 167.515,35.337C166.747,34.852 166.158,34.198 165.747,33.377C165.337,32.556 165.131,31.644 165.131,30.641C165.131,29.638 165.337,28.726 165.747,27.905C166.158,27.084 166.747,26.43 167.515,25.945C168.283,25.46 169.195,25.217 170.251,25.217C171.051,25.217 171.771,25.358 172.411,25.641C173.051,25.924 173.595,26.31 174.043,26.801C174.491,27.292 174.827,27.862 175.051,28.513L173.787,28.513C173.521,27.862 173.099,27.345 172.523,26.961C171.947,26.577 171.222,26.385 170.347,26.385C169.494,26.385 168.766,26.574 168.163,26.953C167.561,27.332 167.105,27.841 166.795,28.481C166.486,29.121 166.331,29.841 166.331,30.641C166.331,31.43 166.486,32.148 166.795,32.793C167.105,33.438 167.561,33.95 168.163,34.329C168.766,34.708 169.494,34.897 170.347,34.897C171.222,34.897 171.947,34.705 172.523,34.321C173.099,33.937 173.521,33.42 173.787,32.769L175.051,32.769C174.827,33.409 174.491,33.977 174.043,34.473C173.595,34.969 173.051,35.358 172.411,35.641C171.771,35.924 171.051,36.065 170.251,36.065Z" style="fill:white;fill-rule:nonzero;"/>
                <path d="M176.843,35.937L176.843,25.345L178.043,25.345L178.043,34.785L183.819,34.785L183.819,35.937L176.843,35.937Z" style="fill:white;fill-rule:nonzero;"/>
                <path d="M189.195,36.065C188.321,36.065 187.545,35.87 186.867,35.481C186.19,35.092 185.659,34.545 185.275,33.841C184.891,33.137 184.699,32.316 184.699,31.377L184.699,25.345L185.899,25.345L185.899,31.409C185.899,32.23 186.057,32.897 186.371,33.409C186.686,33.921 187.097,34.297 187.603,34.537C188.11,34.777 188.641,34.897 189.195,34.897C189.761,34.897 190.294,34.777 190.795,34.537C191.297,34.297 191.707,33.921 192.027,33.409C192.347,32.897 192.507,32.23 192.507,31.409L192.507,25.345L193.707,25.345L193.707,31.377C193.707,32.305 193.515,33.121 193.131,33.825C192.747,34.529 192.217,35.078 191.539,35.473C190.862,35.868 190.081,36.065 189.195,36.065Z" style="fill:white;fill-rule:nonzero;"/>
                <path d="M199.963,36.065C198.918,36.065 198.07,35.924 197.419,35.641C196.769,35.358 196.281,34.966 195.955,34.465C195.63,33.964 195.441,33.398 195.387,32.769L196.635,32.769C196.667,33.281 196.838,33.694 197.147,34.009C197.457,34.324 197.865,34.556 198.371,34.705C198.878,34.854 199.435,34.929 200.043,34.929C200.939,34.929 201.649,34.772 202.171,34.457C202.694,34.142 202.955,33.676 202.955,33.057C202.955,32.684 202.825,32.382 202.563,32.153C202.302,31.924 201.955,31.734 201.523,31.585C201.091,31.436 200.619,31.3 200.107,31.177C199.595,31.054 199.081,30.924 198.563,30.785C198.046,30.646 197.571,30.47 197.139,30.257C196.707,30.044 196.361,29.769 196.099,29.433C195.838,29.097 195.707,28.668 195.707,28.145C195.707,27.281 196.041,26.577 196.707,26.033C197.374,25.489 198.369,25.217 199.691,25.217C200.63,25.217 201.403,25.358 202.011,25.641C202.619,25.924 203.075,26.294 203.379,26.753C203.683,27.212 203.851,27.708 203.883,28.241L202.651,28.241C202.587,27.708 202.321,27.257 201.851,26.889C201.382,26.521 200.662,26.337 199.691,26.337C199.094,26.337 198.609,26.396 198.235,26.513C197.862,26.63 197.577,26.782 197.379,26.969C197.182,27.156 197.049,27.35 196.979,27.553C196.91,27.756 196.875,27.948 196.875,28.129C196.875,28.481 197.006,28.766 197.267,28.985C197.529,29.204 197.875,29.385 198.307,29.529C198.739,29.673 199.217,29.804 199.739,29.921C200.262,30.038 200.782,30.169 201.299,30.313C201.817,30.457 202.291,30.638 202.723,30.857C203.155,31.076 203.502,31.356 203.763,31.697C204.025,32.038 204.155,32.476 204.155,33.009C204.155,33.99 203.782,34.745 203.035,35.273C202.289,35.801 201.265,36.065 199.963,36.065Z" style="fill:white;fill-rule:nonzero;"/>
                <path d="M208.635,35.937L208.635,26.481L204.939,26.481L204.939,25.345L213.531,25.345L213.531,26.481L209.835,26.481L209.835,35.937L208.635,35.937Z" style="fill:white;fill-rule:nonzero;"/>
                <path d="M215.051,35.937L215.051,25.345L220.123,25.345C221.211,25.345 222.078,25.644 222.723,26.241C223.369,26.838 223.691,27.644 223.691,28.657C223.691,29.34 223.561,29.884 223.299,30.289C223.038,30.694 222.71,31.001 222.315,31.209C221.921,31.417 221.526,31.569 221.131,31.665L223.915,35.937L222.491,35.937L219.931,31.873L216.251,31.873L216.251,35.937L215.051,35.937ZM216.251,30.737L219.915,30.737C220.299,30.737 220.689,30.678 221.083,30.561C221.478,30.444 221.811,30.233 222.083,29.929C222.355,29.625 222.491,29.201 222.491,28.657C222.491,27.985 222.262,27.454 221.803,27.065C221.345,26.676 220.737,26.481 219.979,26.481L216.251,26.481L216.251,30.737Z" style="fill:white;fill-rule:nonzero;"/>
            </g>
            <g transform="matrix(1.09255,0,0,1.09255,1126.53,930.143)">
                <path d="M114.139,35.937L114.139,25.345L118.603,25.345C119.233,25.345 119.838,25.465 120.419,25.705C121.001,25.945 121.521,26.294 121.979,26.753C122.438,27.212 122.801,27.766 123.067,28.417C123.334,29.068 123.467,29.809 123.467,30.641C123.467,31.473 123.334,32.214 123.067,32.865C122.801,33.516 122.438,34.07 121.979,34.529C121.521,34.988 121.001,35.337 120.419,35.577C119.838,35.817 119.233,35.937 118.603,35.937L114.139,35.937ZM115.339,34.801L118.555,34.801C119.313,34.801 119.969,34.609 120.523,34.225C121.078,33.841 121.507,33.334 121.811,32.705C122.115,32.076 122.267,31.388 122.267,30.641C122.267,29.884 122.115,29.19 121.811,28.561C121.507,27.932 121.078,27.428 120.523,27.049C119.969,26.67 119.313,26.481 118.555,26.481L115.339,26.481L115.339,34.801Z" style="fill:white;fill-opacity:0.67;fill-rule:nonzero;"/>
                <path d="M125.083,26.593L125.083,25.025L126.379,25.025L126.379,26.593L125.083,26.593ZM125.131,35.937L125.131,27.937L126.331,27.937L126.331,35.937L125.131,35.937Z" style="fill:white;fill-opacity:0.67;fill-rule:nonzero;"/>
                <path d="M131.323,36.065C130.587,36.065 129.966,35.942 129.459,35.697C128.953,35.452 128.566,35.129 128.299,34.729C128.033,34.329 127.883,33.894 127.851,33.425L129.099,33.425C129.131,33.692 129.225,33.95 129.379,34.201C129.534,34.452 129.771,34.654 130.091,34.809C130.411,34.964 130.827,35.041 131.339,35.041C131.499,35.041 131.697,35.025 131.931,34.993C132.166,34.961 132.393,34.902 132.611,34.817C132.83,34.732 133.014,34.604 133.163,34.433C133.313,34.262 133.387,34.044 133.387,33.777C133.387,33.446 133.259,33.19 133.003,33.009C132.747,32.828 132.417,32.686 132.011,32.585C131.606,32.484 131.177,32.385 130.723,32.289C130.27,32.193 129.841,32.068 129.435,31.913C129.03,31.758 128.699,31.54 128.443,31.257C128.187,30.974 128.059,30.588 128.059,30.097C128.059,29.372 128.323,28.809 128.851,28.409C129.379,28.009 130.161,27.809 131.195,27.809C131.899,27.809 132.473,27.918 132.915,28.137C133.358,28.356 133.694,28.636 133.923,28.977C134.153,29.318 134.289,29.686 134.331,30.081L133.115,30.081C133.073,29.74 132.905,29.446 132.611,29.201C132.318,28.956 131.835,28.833 131.163,28.833C129.894,28.833 129.259,29.217 129.259,29.985C129.259,30.305 129.387,30.55 129.643,30.721C129.899,30.892 130.23,31.028 130.635,31.129C131.041,31.23 131.47,31.326 131.923,31.417C132.377,31.508 132.806,31.633 133.211,31.793C133.617,31.953 133.947,32.18 134.203,32.473C134.459,32.766 134.587,33.164 134.587,33.665C134.587,34.444 134.291,35.038 133.699,35.449C133.107,35.86 132.315,36.065 131.323,36.065Z" style="fill:white;fill-opacity:0.67;fill-rule:nonzero;"/>
                <path d="M136.987,35.937L136.987,28.993L135.355,28.993L135.355,27.937L136.987,27.937L136.987,25.073L138.187,25.073L138.187,27.937L140.027,27.937L140.027,28.993L138.187,28.993L138.187,35.937L136.987,35.937Z" style="fill:white;fill-opacity:0.67;fill-rule:nonzero;"/>
                <path d="M141.339,35.937L141.339,27.937L142.539,27.937L142.539,29.905C142.582,29.766 142.665,29.582 142.787,29.353C142.91,29.124 143.089,28.892 143.323,28.657C143.558,28.422 143.854,28.222 144.211,28.057C144.569,27.892 144.993,27.809 145.483,27.809L145.563,27.809L145.563,29.009L145.419,29.009C144.822,29.009 144.307,29.172 143.875,29.497C143.443,29.822 143.113,30.244 142.883,30.761C142.654,31.278 142.539,31.83 142.539,32.417L142.539,35.937L141.339,35.937Z" style="fill:white;fill-opacity:0.67;fill-rule:nonzero;"/>
                <path d="M146.811,26.593L146.811,25.025L148.107,25.025L148.107,26.593L146.811,26.593ZM146.859,35.937L146.859,27.937L148.059,27.937L148.059,35.937L146.859,35.937Z" style="fill:white;fill-opacity:0.67;fill-rule:nonzero;"/>
                <path d="M154.203,36.065C153.542,36.065 152.974,35.937 152.499,35.681C152.025,35.425 151.638,35.084 151.339,34.657L151.339,35.937L150.139,35.937L150.139,24.737L151.339,24.737L151.339,29.233C151.638,28.796 152.025,28.449 152.499,28.193C152.974,27.937 153.542,27.809 154.203,27.809C154.982,27.809 155.662,27.993 156.243,28.361C156.825,28.729 157.275,29.225 157.595,29.849C157.915,30.473 158.075,31.169 158.075,31.937C158.075,32.694 157.915,33.388 157.595,34.017C157.275,34.646 156.825,35.145 156.243,35.513C155.662,35.881 154.982,36.065 154.203,36.065ZM154.043,34.977C154.641,34.977 155.15,34.838 155.571,34.561C155.993,34.284 156.315,33.913 156.539,33.449C156.763,32.985 156.875,32.481 156.875,31.937C156.875,31.382 156.763,30.876 156.539,30.417C156.315,29.958 155.993,29.59 155.571,29.313C155.15,29.036 154.641,28.897 154.043,28.897C153.457,28.897 152.955,29.036 152.539,29.313C152.123,29.59 151.809,29.958 151.595,30.417C151.382,30.876 151.275,31.382 151.275,31.937C151.275,32.481 151.382,32.985 151.595,33.449C151.809,33.913 152.123,34.284 152.539,34.561C152.955,34.838 153.457,34.977 154.043,34.977Z" style="fill:white;fill-opacity:0.67;fill-rule:nonzero;"/>
                <path d="M162.779,36.065C162.235,36.065 161.718,35.934 161.227,35.673C160.737,35.412 160.339,35.022 160.035,34.505C159.731,33.988 159.579,33.35 159.579,32.593L159.579,27.937L160.779,27.937L160.779,32.561C160.779,33.286 160.99,33.87 161.411,34.313C161.833,34.756 162.369,34.977 163.019,34.977C163.467,34.977 163.873,34.873 164.235,34.665C164.598,34.457 164.889,34.172 165.107,33.809C165.326,33.446 165.435,33.025 165.435,32.545L165.435,27.937L166.635,27.937L166.635,35.937L165.435,35.937L165.435,34.689C165.147,35.073 164.795,35.398 164.379,35.665C163.963,35.932 163.43,36.065 162.779,36.065Z" style="fill:white;fill-opacity:0.67;fill-rule:nonzero;"/>
                <path d="M169.579,35.937L169.579,28.993L167.947,28.993L167.947,27.937L169.579,27.937L169.579,25.073L170.779,25.073L170.779,27.937L172.619,27.937L172.619,28.993L170.779,28.993L170.779,35.937L169.579,35.937Z" style="fill:white;fill-opacity:0.67;fill-rule:nonzero;"/>
                <path d="M177.323,36.065C176.513,36.065 175.803,35.881 175.195,35.513C174.587,35.145 174.115,34.646 173.779,34.017C173.443,33.388 173.275,32.694 173.275,31.937C173.275,31.169 173.435,30.473 173.755,29.849C174.075,29.225 174.534,28.729 175.131,28.361C175.729,27.993 176.433,27.809 177.243,27.809C178.065,27.809 178.771,27.993 179.363,28.361C179.955,28.729 180.411,29.225 180.731,29.849C181.051,30.473 181.211,31.169 181.211,31.937L181.211,32.417L174.507,32.417C174.571,32.886 174.723,33.316 174.963,33.705C175.203,34.094 175.526,34.404 175.931,34.633C176.337,34.862 176.806,34.977 177.339,34.977C177.905,34.977 178.379,34.852 178.763,34.601C179.147,34.35 179.446,34.028 179.659,33.633L180.971,33.633C180.694,34.348 180.254,34.932 179.651,35.385C179.049,35.838 178.273,36.065 177.323,36.065ZM174.523,31.297L179.963,31.297C179.857,30.614 179.569,30.044 179.099,29.585C178.63,29.126 178.011,28.897 177.243,28.897C176.475,28.897 175.859,29.126 175.395,29.585C174.931,30.044 174.641,30.614 174.523,31.297Z" style="fill:white;fill-opacity:0.67;fill-rule:nonzero;"/>
                <path d="M186.059,36.065C185.281,36.065 184.601,35.881 184.019,35.513C183.438,35.145 182.987,34.646 182.667,34.017C182.347,33.388 182.187,32.694 182.187,31.937C182.187,31.169 182.347,30.473 182.667,29.849C182.987,29.225 183.438,28.729 184.019,28.361C184.601,27.993 185.281,27.809 186.059,27.809C186.721,27.809 187.289,27.937 187.763,28.193C188.238,28.449 188.625,28.796 188.923,29.233L188.923,24.737L190.123,24.737L190.123,35.937L188.923,35.937L188.923,34.657C188.625,35.084 188.238,35.425 187.763,35.681C187.289,35.937 186.721,36.065 186.059,36.065ZM186.219,34.977C186.817,34.977 187.321,34.838 187.731,34.561C188.142,34.284 188.454,33.913 188.667,33.449C188.881,32.985 188.987,32.481 188.987,31.937C188.987,31.382 188.881,30.876 188.667,30.417C188.454,29.958 188.142,29.59 187.731,29.313C187.321,29.036 186.817,28.897 186.219,28.897C185.633,28.897 185.126,29.036 184.699,29.313C184.273,29.59 183.947,29.958 183.723,30.417C183.499,30.876 183.387,31.382 183.387,31.937C183.387,32.481 183.499,32.985 183.723,33.449C183.947,33.913 184.273,34.284 184.699,34.561C185.126,34.838 185.633,34.977 186.219,34.977Z" style="fill:white;fill-opacity:0.67;fill-rule:nonzero;"/>
                <path d="M200.315,36.065C199.259,36.065 198.347,35.822 197.579,35.337C196.811,34.852 196.222,34.198 195.811,33.377C195.401,32.556 195.195,31.644 195.195,30.641C195.195,29.638 195.401,28.726 195.811,27.905C196.222,27.084 196.811,26.43 197.579,25.945C198.347,25.46 199.259,25.217 200.315,25.217C201.115,25.217 201.835,25.358 202.475,25.641C203.115,25.924 203.659,26.31 204.107,26.801C204.555,27.292 204.891,27.862 205.115,28.513L203.851,28.513C203.585,27.862 203.163,27.345 202.587,26.961C202.011,26.577 201.286,26.385 200.411,26.385C199.558,26.385 198.83,26.574 198.227,26.953C197.625,27.332 197.169,27.841 196.859,28.481C196.55,29.121 196.395,29.841 196.395,30.641C196.395,31.43 196.55,32.148 196.859,32.793C197.169,33.438 197.625,33.95 198.227,34.329C198.83,34.708 199.558,34.897 200.411,34.897C201.286,34.897 202.011,34.705 202.587,34.321C203.163,33.937 203.585,33.42 203.851,32.769L205.115,32.769C204.891,33.409 204.555,33.977 204.107,34.473C203.659,34.969 203.115,35.358 202.475,35.641C201.835,35.924 201.115,36.065 200.315,36.065Z" style="fill:white;fill-opacity:0.67;fill-rule:nonzero;"/>
                <path d="M210.123,36.065C209.313,36.065 208.609,35.881 208.011,35.513C207.414,35.145 206.955,34.646 206.635,34.017C206.315,33.388 206.155,32.694 206.155,31.937C206.155,31.169 206.315,30.473 206.635,29.849C206.955,29.225 207.414,28.729 208.011,28.361C208.609,27.993 209.313,27.809 210.123,27.809C210.945,27.809 211.651,27.993 212.243,28.361C212.835,28.729 213.291,29.225 213.611,29.849C213.931,30.473 214.091,31.169 214.091,31.937C214.091,32.694 213.931,33.388 213.611,34.017C213.291,34.646 212.835,35.145 212.243,35.513C211.651,35.881 210.945,36.065 210.123,36.065ZM210.123,34.977C210.721,34.977 211.225,34.838 211.635,34.561C212.046,34.284 212.358,33.913 212.571,33.449C212.785,32.985 212.891,32.481 212.891,31.937C212.891,31.382 212.785,30.876 212.571,30.417C212.358,29.958 212.046,29.59 211.635,29.313C211.225,29.036 210.721,28.897 210.123,28.897C209.537,28.897 209.035,29.036 208.619,29.313C208.203,29.59 207.889,29.958 207.675,30.417C207.462,30.876 207.355,31.382 207.355,31.937C207.355,32.481 207.462,32.985 207.675,33.449C207.889,33.913 208.203,34.284 208.619,34.561C209.035,34.838 209.537,34.977 210.123,34.977Z" style="fill:white;fill-opacity:0.67;fill-rule:nonzero;"/>
                <path d="M215.675,35.937L215.675,27.937L216.875,27.937L216.875,29.153C217.057,28.833 217.345,28.529 217.739,28.241C218.134,27.953 218.657,27.809 219.307,27.809C219.841,27.809 220.334,27.95 220.787,28.233C221.241,28.516 221.595,28.913 221.851,29.425C221.958,29.244 222.126,29.025 222.355,28.769C222.585,28.513 222.886,28.289 223.259,28.097C223.633,27.905 224.081,27.809 224.603,27.809C225.115,27.809 225.595,27.942 226.043,28.209C226.491,28.476 226.857,28.857 227.139,29.353C227.422,29.849 227.563,30.433 227.563,31.105L227.563,35.937L226.363,35.937L226.363,31.137C226.363,30.465 226.174,29.924 225.795,29.513C225.417,29.102 224.945,28.897 224.379,28.897C223.793,28.897 223.286,29.094 222.859,29.489C222.433,29.884 222.219,30.438 222.219,31.153L222.219,35.937L221.019,35.937L221.019,31.137C221.019,30.465 220.83,29.924 220.451,29.513C220.073,29.102 219.601,28.897 219.035,28.897C218.449,28.897 217.942,29.094 217.515,29.489C217.089,29.884 216.875,30.438 216.875,31.153L216.875,35.937L215.675,35.937Z" style="fill:white;fill-opacity:0.67;fill-rule:nonzero;"/>
                <path d="M229.563,39.105L229.563,27.937L230.763,27.937L230.763,29.217C231.062,28.78 231.449,28.436 231.923,28.185C232.398,27.934 232.966,27.809 233.627,27.809C234.406,27.809 235.086,27.993 235.667,28.361C236.249,28.729 236.699,29.225 237.019,29.849C237.339,30.473 237.499,31.169 237.499,31.937C237.499,32.694 237.339,33.388 237.019,34.017C236.699,34.646 236.249,35.145 235.667,35.513C235.086,35.881 234.406,36.065 233.627,36.065C232.966,36.065 232.398,35.934 231.923,35.673C231.449,35.412 231.062,35.068 230.763,34.641L230.763,39.105L229.563,39.105ZM233.467,34.977C234.065,34.977 234.574,34.838 234.995,34.561C235.417,34.284 235.739,33.913 235.963,33.449C236.187,32.985 236.299,32.481 236.299,31.937C236.299,31.382 236.187,30.876 235.963,30.417C235.739,29.958 235.417,29.59 234.995,29.313C234.574,29.036 234.065,28.897 233.467,28.897C232.881,28.897 232.379,29.036 231.963,29.313C231.547,29.59 231.233,29.958 231.019,30.417C230.806,30.876 230.699,31.382 230.699,31.937C230.699,32.481 230.806,32.985 231.019,33.449C231.233,33.913 231.547,34.284 231.963,34.561C232.379,34.838 232.881,34.977 233.467,34.977Z" style="fill:white;fill-opacity:0.67;fill-rule:nonzero;"/>
                <path d="M242.203,36.065C241.659,36.065 241.142,35.934 240.651,35.673C240.161,35.412 239.763,35.022 239.459,34.505C239.155,33.988 239.003,33.35 239.003,32.593L239.003,27.937L240.203,27.937L240.203,32.561C240.203,33.286 240.414,33.87 240.835,34.313C241.257,34.756 241.793,34.977 242.443,34.977C242.891,34.977 243.297,34.873 243.659,34.665C244.022,34.457 244.313,34.172 244.531,33.809C244.75,33.446 244.859,33.025 244.859,32.545L244.859,27.937L246.059,27.937L246.059,35.937L244.859,35.937L244.859,34.689C244.571,35.073 244.219,35.398 243.803,35.665C243.387,35.932 242.854,36.065 242.203,36.065Z" style="fill:white;fill-opacity:0.67;fill-rule:nonzero;"/>
                <path d="M249.003,35.937L249.003,28.993L247.371,28.993L247.371,27.937L249.003,27.937L249.003,25.073L250.203,25.073L250.203,27.937L252.043,27.937L252.043,28.993L250.203,28.993L250.203,35.937L249.003,35.937Z" style="fill:white;fill-opacity:0.67;fill-rule:nonzero;"/>
                <path d="M253.307,26.593L253.307,25.025L254.603,25.025L254.603,26.593L253.307,26.593ZM253.355,35.937L253.355,27.937L254.555,27.937L254.555,35.937L253.355,35.937Z" style="fill:white;fill-opacity:0.67;fill-rule:nonzero;"/>
                <path d="M256.635,35.937L256.635,27.937L257.835,27.937L257.835,29.185C258.123,28.801 258.475,28.476 258.891,28.209C259.307,27.942 259.841,27.809 260.491,27.809C261.046,27.809 261.566,27.94 262.051,28.201C262.537,28.462 262.931,28.852 263.235,29.369C263.539,29.886 263.691,30.524 263.691,31.281L263.691,35.937L262.491,35.937L262.491,31.313C262.491,30.588 262.283,30.004 261.867,29.561C261.451,29.118 260.913,28.897 260.251,28.897C259.803,28.897 259.398,28.998 259.035,29.201C258.673,29.404 258.382,29.689 258.163,30.057C257.945,30.425 257.835,30.849 257.835,31.329L257.835,35.937L256.635,35.937Z" style="fill:white;fill-opacity:0.67;fill-rule:nonzero;"/>
                <path d="M269.355,39.233C268.353,39.233 267.537,39.017 266.907,38.585C266.278,38.153 265.851,37.59 265.627,36.897L266.955,36.897C267.115,37.292 267.393,37.598 267.787,37.817C268.182,38.036 268.683,38.145 269.291,38.145C270.209,38.145 270.878,37.929 271.299,37.497C271.721,37.065 271.931,36.438 271.931,35.617L271.931,34.513C271.633,34.94 271.246,35.284 270.771,35.545C270.297,35.806 269.729,35.937 269.067,35.937C268.289,35.937 267.609,35.758 267.027,35.401C266.446,35.044 265.995,34.556 265.675,33.937C265.355,33.318 265.195,32.63 265.195,31.873C265.195,31.105 265.355,30.414 265.675,29.801C265.995,29.188 266.446,28.702 267.027,28.345C267.609,27.988 268.289,27.809 269.067,27.809C269.729,27.809 270.297,27.934 270.771,28.185C271.246,28.436 271.633,28.78 271.931,29.217L271.931,27.937L273.131,27.937L273.131,35.697C273.131,36.838 272.803,37.713 272.147,38.321C271.491,38.929 270.561,39.233 269.355,39.233ZM269.227,34.849C269.814,34.849 270.313,34.716 270.723,34.449C271.134,34.182 271.449,33.822 271.667,33.369C271.886,32.916 271.995,32.417 271.995,31.873C271.995,31.318 271.886,30.817 271.667,30.369C271.449,29.921 271.134,29.564 270.723,29.297C270.313,29.03 269.814,28.897 269.227,28.897C268.641,28.897 268.134,29.03 267.707,29.297C267.281,29.564 266.955,29.921 266.731,30.369C266.507,30.817 266.395,31.318 266.395,31.873C266.395,32.417 266.507,32.916 266.731,33.369C266.955,33.822 267.281,34.182 267.707,34.449C268.134,34.716 268.641,34.849 269.227,34.849Z" style="fill:white;fill-opacity:0.67;fill-rule:nonzero;"/>
                <path d="M282.667,36.065C281.622,36.065 280.774,35.924 280.123,35.641C279.473,35.358 278.985,34.966 278.659,34.465C278.334,33.964 278.145,33.398 278.091,32.769L279.339,32.769C279.371,33.281 279.542,33.694 279.851,34.009C280.161,34.324 280.569,34.556 281.075,34.705C281.582,34.854 282.139,34.929 282.747,34.929C283.643,34.929 284.353,34.772 284.875,34.457C285.398,34.142 285.659,33.676 285.659,33.057C285.659,32.684 285.529,32.382 285.267,32.153C285.006,31.924 284.659,31.734 284.227,31.585C283.795,31.436 283.323,31.3 282.811,31.177C282.299,31.054 281.785,30.924 281.267,30.785C280.75,30.646 280.275,30.47 279.843,30.257C279.411,30.044 279.065,29.769 278.803,29.433C278.542,29.097 278.411,28.668 278.411,28.145C278.411,27.281 278.745,26.577 279.411,26.033C280.078,25.489 281.073,25.217 282.395,25.217C283.334,25.217 284.107,25.358 284.715,25.641C285.323,25.924 285.779,26.294 286.083,26.753C286.387,27.212 286.555,27.708 286.587,28.241L285.355,28.241C285.291,27.708 285.025,27.257 284.555,26.889C284.086,26.521 283.366,26.337 282.395,26.337C281.798,26.337 281.313,26.396 280.939,26.513C280.566,26.63 280.281,26.782 280.083,26.969C279.886,27.156 279.753,27.35 279.683,27.553C279.614,27.756 279.579,27.948 279.579,28.129C279.579,28.481 279.71,28.766 279.971,28.985C280.233,29.204 280.579,29.385 281.011,29.529C281.443,29.673 281.921,29.804 282.443,29.921C282.966,30.038 283.486,30.169 284.003,30.313C284.521,30.457 284.995,30.638 285.427,30.857C285.859,31.076 286.206,31.356 286.467,31.697C286.729,32.038 286.859,32.476 286.859,33.009C286.859,33.99 286.486,34.745 285.739,35.273C284.993,35.801 283.969,36.065 282.667,36.065Z" style="fill:white;fill-opacity:0.67;fill-rule:nonzero;"/>
                <path d="M289.291,39.105L290.747,35.825L287.483,27.937L288.811,27.937L291.387,34.497L294.011,27.937L295.323,27.937L290.587,39.105L289.291,39.105Z" style="fill:white;fill-opacity:0.67;fill-rule:nonzero;"/>
                <path d="M299.323,36.065C298.587,36.065 297.966,35.942 297.459,35.697C296.953,35.452 296.566,35.129 296.299,34.729C296.033,34.329 295.883,33.894 295.851,33.425L297.099,33.425C297.131,33.692 297.225,33.95 297.379,34.201C297.534,34.452 297.771,34.654 298.091,34.809C298.411,34.964 298.827,35.041 299.339,35.041C299.499,35.041 299.697,35.025 299.931,34.993C300.166,34.961 300.393,34.902 300.611,34.817C300.83,34.732 301.014,34.604 301.163,34.433C301.313,34.262 301.387,34.044 301.387,33.777C301.387,33.446 301.259,33.19 301.003,33.009C300.747,32.828 300.417,32.686 300.011,32.585C299.606,32.484 299.177,32.385 298.723,32.289C298.27,32.193 297.841,32.068 297.435,31.913C297.03,31.758 296.699,31.54 296.443,31.257C296.187,30.974 296.059,30.588 296.059,30.097C296.059,29.372 296.323,28.809 296.851,28.409C297.379,28.009 298.161,27.809 299.195,27.809C299.899,27.809 300.473,27.918 300.915,28.137C301.358,28.356 301.694,28.636 301.923,28.977C302.153,29.318 302.289,29.686 302.331,30.081L301.115,30.081C301.073,29.74 300.905,29.446 300.611,29.201C300.318,28.956 299.835,28.833 299.163,28.833C297.894,28.833 297.259,29.217 297.259,29.985C297.259,30.305 297.387,30.55 297.643,30.721C297.899,30.892 298.23,31.028 298.635,31.129C299.041,31.23 299.47,31.326 299.923,31.417C300.377,31.508 300.806,31.633 301.211,31.793C301.617,31.953 301.947,32.18 302.203,32.473C302.459,32.766 302.587,33.164 302.587,33.665C302.587,34.444 302.291,35.038 301.699,35.449C301.107,35.86 300.315,36.065 299.323,36.065Z" style="fill:white;fill-opacity:0.67;fill-rule:nonzero;"/>
                <path d="M304.987,35.937L304.987,28.993L303.355,28.993L303.355,27.937L304.987,27.937L304.987,25.073L306.187,25.073L306.187,27.937L308.027,27.937L308.027,28.993L306.187,28.993L306.187,35.937L304.987,35.937Z" style="fill:white;fill-opacity:0.67;fill-rule:nonzero;"/>
                <path d="M312.731,36.065C311.921,36.065 311.211,35.881 310.603,35.513C309.995,35.145 309.523,34.646 309.187,34.017C308.851,33.388 308.683,32.694 308.683,31.937C308.683,31.169 308.843,30.473 309.163,29.849C309.483,29.225 309.942,28.729 310.539,28.361C311.137,27.993 311.841,27.809 312.651,27.809C313.473,27.809 314.179,27.993 314.771,28.361C315.363,28.729 315.819,29.225 316.139,29.849C316.459,30.473 316.619,31.169 316.619,31.937L316.619,32.417L309.915,32.417C309.979,32.886 310.131,33.316 310.371,33.705C310.611,34.094 310.934,34.404 311.339,34.633C311.745,34.862 312.214,34.977 312.747,34.977C313.313,34.977 313.787,34.852 314.171,34.601C314.555,34.35 314.854,34.028 315.067,33.633L316.379,33.633C316.102,34.348 315.662,34.932 315.059,35.385C314.457,35.838 313.681,36.065 312.731,36.065ZM309.931,31.297L315.371,31.297C315.265,30.614 314.977,30.044 314.507,29.585C314.038,29.126 313.419,28.897 312.651,28.897C311.883,28.897 311.267,29.126 310.803,29.585C310.339,30.044 310.049,30.614 309.931,31.297Z" style="fill:white;fill-opacity:0.67;fill-rule:nonzero;"/>
                <path d="M318.091,35.937L318.091,27.937L319.291,27.937L319.291,29.153C319.473,28.833 319.761,28.529 320.155,28.241C320.55,27.953 321.073,27.809 321.723,27.809C322.257,27.809 322.75,27.95 323.203,28.233C323.657,28.516 324.011,28.913 324.267,29.425C324.374,29.244 324.542,29.025 324.771,28.769C325.001,28.513 325.302,28.289 325.675,28.097C326.049,27.905 326.497,27.809 327.019,27.809C327.531,27.809 328.011,27.942 328.459,28.209C328.907,28.476 329.273,28.857 329.555,29.353C329.838,29.849 329.979,30.433 329.979,31.105L329.979,35.937L328.779,35.937L328.779,31.137C328.779,30.465 328.59,29.924 328.211,29.513C327.833,29.102 327.361,28.897 326.795,28.897C326.209,28.897 325.702,29.094 325.275,29.489C324.849,29.884 324.635,30.438 324.635,31.153L324.635,35.937L323.435,35.937L323.435,31.137C323.435,30.465 323.246,29.924 322.867,29.513C322.489,29.102 322.017,28.897 321.451,28.897C320.865,28.897 320.358,29.094 319.931,29.489C319.505,29.884 319.291,30.438 319.291,31.153L319.291,35.937L318.091,35.937Z" style="fill:white;fill-opacity:0.67;fill-rule:nonzero;"/>
            </g>
        </g>
    </g>
</svg>
