<?xml version="1.0" encoding="UTF-8" standalone="no"?>
<!DOCTYPE svg PUBLIC "-//W3C//DTD SVG 1.1//EN" "http://www.w3.org/Graphics/SVG/1.1/DTD/svg11.dtd">
<svg width="100%" height="100%" viewBox="0 0 450 93" version="1.1" xmlns="http://www.w3.org/2000/svg" xmlns:xlink="http://www.w3.org/1999/xlink" xml:space="preserve" xmlns:serif="http://www.serif.com/" style="fill-rule:evenodd;clip-rule:evenodd;stroke-linejoin:round;stroke-miterlimit:2;">
    <g>
        <g>
            <g>
                <circle cx="52.586" cy="46.103" r="46.063" style="fill:none;"/>
                <g>
                    <g>
                        <clipPath id="_clip1">
                            <circle cx="52.586" cy="46.103" r="46.063"/>
                        </clipPath>
                        <g clip-path="url(#_clip1)">
                            <g opacity="0.78">
                                <g>
                                    <g>
                                        <rect x="1.879" y="0" width="101.431" height="2.861" style="fill:rgb(145,145,145);"/>
                                    </g>
                                    <g>
                                        <rect x="1.879" y="5.614" width="101.431" height="2.861" style="fill:rgb(145,145,145);"/>
                                    </g>
                                    <g>
                                        <rect x="1.879" y="11.184" width="101.431" height="2.861" style="fill:rgb(145,145,145);"/>
                                    </g>
                                    <g>
                                        <rect x="1.879" y="16.797" width="101.431" height="2.861" style="fill:rgb(145,145,145);"/>
                                    </g>
                                    <g>
                                        <rect x="0.078" y="22.367" width="103.239" height="2.861" style="fill:rgb(145,145,145);"/>
                                    </g>
                                    <g>
                                        <rect x="2.284" y="27.98" width="101.026" height="2.861" style="fill:rgb(145,145,145);"/>
                                    </g>
                                    <g>
                                        <rect x="1.879" y="33.55" width="101.431" height="2.861" style="fill:rgb(145,145,145);"/>
                                    </g>
                                    <g>
                                        <rect x="1.881" y="39.163" width="108.086" height="2.861" style="fill:rgb(145,145,145);"/>
                                    </g>
                                    <g>
                                        <rect x="1.879" y="44.837" width="101.431" height="2.861" style="fill:rgb(145,145,145);"/>
                                    </g>
                                    <g>
                                        <rect x="1.879" y="50.45" width="101.431" height="2.861" style="fill:rgb(145,145,145);"/>
                                    </g>
                                    <g>
                                        <rect x="1.879" y="56.02" width="101.431" height="2.861" style="fill:rgb(145,145,145);"/>
                                    </g>
                                    <g>
                                        <rect x="1.879" y="61.634" width="101.431" height="2.861" style="fill:rgb(145,145,145);"/>
                                    </g>
                                </g>
                                <g>
                                    <g>
                                        <rect x="1.797" y="67.311" width="101.431" height="2.861" style="fill:rgb(145,145,145);"/>
                                    </g>
                                    <g>
                                        <rect x="1.797" y="72.881" width="101.431" height="2.861" style="fill:rgb(145,145,145);"/>
                                    </g>
                                    <g>
                                        <rect x="1.797" y="78.494" width="101.431" height="2.861" style="fill:rgb(145,145,145);"/>
                                    </g>
                                    <g>
                                        <rect x="-0.004" y="84.064" width="103.239" height="2.861" style="fill:rgb(145,145,145);"/>
                                    </g>
                                    <g>
                                        <rect x="2.203" y="89.677" width="101.026" height="2.861" style="fill:rgb(145,145,145);"/>
                                    </g>
                                </g>
                            </g>
                        </g>
                    </g>
                </g>
            </g>
        </g>
        <g>
            <g>
                <path d="M146.397,52.862C143.409,52.862 140.984,52.458 139.122,51.649C137.263,50.84 135.867,49.719 134.935,48.286C134.006,46.853 133.465,45.234 133.311,43.436L136.88,43.436C136.971,44.9 137.46,46.081 138.344,46.982C139.231,47.883 140.397,48.546 141.844,48.972C143.294,49.398 144.887,49.613 146.626,49.613C149.188,49.613 151.219,49.164 152.712,48.263C154.207,47.362 154.954,46.03 154.954,44.259C154.954,43.193 154.582,42.329 153.833,41.674C153.086,41.019 152.094,40.476 150.859,40.05C149.623,39.624 148.273,39.235 146.809,38.883C145.345,38.531 143.875,38.159 142.394,37.762C140.915,37.364 139.557,36.861 138.321,36.252C137.086,35.643 136.096,34.856 135.347,33.895C134.601,32.934 134.226,31.708 134.226,30.212C134.226,27.741 135.181,25.728 137.086,24.172C138.993,22.616 141.839,21.838 145.619,21.838C148.305,21.838 150.515,22.242 152.254,23.051C153.993,23.86 155.297,24.918 156.166,26.231C157.036,27.544 157.516,28.962 157.608,30.486L154.084,30.486C153.901,28.962 153.141,27.672 151.797,26.62C150.455,25.567 148.396,25.041 145.619,25.041C143.912,25.041 142.525,25.21 141.456,25.545C140.389,25.879 139.574,26.314 139.008,26.849C138.444,27.383 138.064,27.938 137.864,28.519C137.666,29.099 137.566,29.648 137.566,30.166C137.566,31.173 137.941,31.988 138.687,32.614C139.436,33.24 140.426,33.758 141.661,34.17C142.897,34.582 144.264,34.956 145.757,35.291C147.252,35.625 148.739,36 150.218,36.412C151.699,36.824 153.055,37.341 154.29,37.968C155.526,38.594 156.518,39.395 157.265,40.37C158.014,41.345 158.386,42.598 158.386,44.122C158.386,46.928 157.319,49.087 155.183,50.597C153.049,52.107 150.121,52.862 146.397,52.862Z" style="fill:rgb(51,51,51);fill-rule:nonzero;"/>
                <path d="M176.185,52.862C173.686,52.862 171.466,52.304 169.528,51.191C167.591,50.079 166.073,48.515 164.975,46.501C163.877,44.488 163.327,42.14 163.327,39.455L163.327,22.204L166.759,22.204L166.759,39.546C166.759,41.894 167.211,43.802 168.109,45.266C169.01,46.73 170.185,47.805 171.632,48.492C173.082,49.178 174.601,49.521 176.185,49.521C177.804,49.521 179.328,49.178 180.761,48.492C182.197,47.805 183.369,46.73 184.284,45.266C185.199,43.802 185.657,41.894 185.657,39.546L185.657,22.204L189.089,22.204L189.089,39.455C189.089,42.109 188.54,44.442 187.441,46.456C186.343,48.469 184.828,50.039 182.889,51.169C180.953,52.298 178.719,52.862 176.185,52.862Z" style="fill:rgb(51,51,51);fill-rule:nonzero;"/>
                <path d="M196.135,52.496L196.135,22.204L209.771,22.204C213.005,22.204 215.554,23.082 217.412,24.835C219.274,26.588 220.204,28.962 220.204,31.951C220.204,34.939 219.274,37.313 217.412,39.066C215.554,40.819 213.005,41.697 209.771,41.697L199.567,41.697L199.567,52.496L196.135,52.496ZM199.567,38.494L209.542,38.494C211.922,38.494 213.723,37.913 214.942,36.755C216.163,35.597 216.772,33.995 216.772,31.951C216.772,29.937 216.163,28.35 214.942,27.192C213.723,26.034 211.922,25.453 209.542,25.453L199.567,25.453L199.567,38.494Z" style="fill:rgb(51,51,51);fill-rule:nonzero;"/>
                <path d="M224.871,52.496L224.871,22.204L247.155,22.204L247.155,25.499L228.303,25.499L228.303,35.657L245.141,35.657L245.141,38.997L228.303,38.997L228.303,49.201L247.155,49.201L247.155,52.496L224.871,52.496Z" style="fill:rgb(51,51,51);fill-rule:nonzero;"/>
                <path d="M252.691,52.496L252.691,22.204L267.196,22.204C270.308,22.204 272.787,23.059 274.632,24.767C276.479,26.474 277.4,28.779 277.4,31.676C277.4,33.629 277.028,35.185 276.279,36.343C275.533,37.502 274.595,38.379 273.465,38.974C272.338,39.569 271.209,40.004 270.079,40.278L278.041,52.496L273.968,52.496L266.647,40.873L256.123,40.873L256.123,52.496L252.691,52.496ZM256.123,37.624L266.601,37.624C267.7,37.624 268.815,37.456 269.942,37.121C271.071,36.787 272.024,36.183 272.801,35.314C273.579,34.444 273.968,33.232 273.968,31.676C273.968,29.754 273.313,28.236 272.001,27.123C270.691,26.011 268.952,25.453 266.784,25.453L256.123,25.453L256.123,37.624Z" style="fill:rgb(51,51,51);fill-rule:nonzero;"/>
                <path d="M296.023,52.862C293.003,52.862 290.395,52.167 288.199,50.78C286.002,49.393 284.318,47.522 283.143,45.174C281.97,42.827 281.381,40.218 281.381,37.35C281.381,34.482 281.97,31.873 283.143,29.525C284.318,27.178 286.002,25.307 288.199,23.92C290.395,22.533 293.003,21.838 296.023,21.838C298.311,21.838 300.37,22.242 302.2,23.051C304.031,23.86 305.586,24.964 306.868,26.368C308.149,27.772 309.11,29.403 309.75,31.264L306.136,31.264C305.375,29.403 304.168,27.924 302.521,26.826C300.873,25.728 298.8,25.179 296.298,25.179C293.858,25.179 291.776,25.719 290.052,26.803C288.33,27.887 287.026,29.342 286.14,31.173C285.256,33.003 284.813,35.062 284.813,37.35C284.813,39.606 285.256,41.66 286.14,43.504C287.026,45.349 288.33,46.813 290.052,47.897C291.776,48.981 293.858,49.521 296.298,49.521C298.8,49.521 300.873,48.972 302.521,47.874C304.168,46.776 305.375,45.297 306.136,43.436L309.75,43.436C309.11,45.266 308.149,46.89 306.868,48.309C305.586,49.727 304.031,50.84 302.2,51.649C300.37,52.458 298.311,52.862 296.023,52.862Z" style="fill:rgb(51,51,51);fill-rule:nonzero;"/>
                <path d="M314.875,52.496L314.875,22.204L318.307,22.204L318.307,49.201L334.825,49.201L334.825,52.496L314.875,52.496Z" style="fill:rgb(51,51,51);fill-rule:nonzero;"/>
                <path d="M350.2,52.862C347.7,52.862 345.481,52.304 343.542,51.191C341.606,50.079 340.087,48.515 338.989,46.501C337.891,44.488 337.342,42.14 337.342,39.455L337.342,22.204L340.774,22.204L340.774,39.546C340.774,41.894 341.226,43.802 342.124,45.266C343.024,46.73 344.2,47.805 345.647,48.492C347.097,49.178 348.615,49.521 350.2,49.521C351.818,49.521 353.343,49.178 354.775,48.492C356.211,47.805 357.384,46.73 358.299,45.266C359.214,43.802 359.671,41.894 359.671,39.546L359.671,22.204L363.103,22.204L363.103,39.455C363.103,42.109 362.554,44.442 361.456,46.456C360.358,48.469 358.842,50.039 356.903,51.169C354.967,52.298 352.733,52.862 350.2,52.862Z" style="fill:rgb(51,51,51);fill-rule:nonzero;"/>
                <path d="M380.994,52.862C378.006,52.862 375.581,52.458 373.719,51.649C371.86,50.84 370.464,49.719 369.532,48.286C368.603,46.853 368.062,45.234 367.908,43.436L371.477,43.436C371.568,44.9 372.057,46.081 372.941,46.982C373.828,47.883 374.994,48.546 376.441,48.972C377.891,49.398 379.484,49.613 381.223,49.613C383.785,49.613 385.816,49.164 387.309,48.263C388.804,47.362 389.551,46.03 389.551,44.259C389.551,43.193 389.179,42.329 388.43,41.674C387.683,41.019 386.691,40.476 385.456,40.05C384.22,39.624 382.87,39.235 381.406,38.883C379.942,38.531 378.472,38.159 376.99,37.762C375.512,37.364 374.154,36.861 372.918,36.252C371.683,35.643 370.693,34.856 369.944,33.895C369.197,32.934 368.823,31.708 368.823,30.212C368.823,27.741 369.778,25.728 371.683,24.172C373.59,22.616 376.436,21.838 380.216,21.838C382.902,21.838 385.112,22.242 386.851,23.051C388.59,23.86 389.894,24.918 390.763,26.231C391.633,27.544 392.113,28.962 392.205,30.486L388.681,30.486C388.498,28.962 387.738,27.672 386.394,26.62C385.052,25.567 382.993,25.041 380.216,25.041C378.509,25.041 377.122,25.21 376.052,25.545C374.986,25.879 374.171,26.314 373.604,26.849C373.041,27.383 372.661,27.938 372.461,28.519C372.263,29.099 372.163,29.648 372.163,30.166C372.163,31.173 372.538,31.988 373.284,32.614C374.033,33.24 375.023,33.758 376.258,34.17C377.494,34.582 378.861,34.956 380.354,35.291C381.849,35.625 383.336,36 384.815,36.412C386.296,36.824 387.652,37.341 388.887,37.968C390.123,38.594 391.115,39.395 391.862,40.37C392.611,41.345 392.983,42.598 392.983,44.122C392.983,46.928 391.916,49.087 389.78,50.597C387.646,52.107 384.718,52.862 380.994,52.862Z" style="fill:rgb(51,51,51);fill-rule:nonzero;"/>
                <path d="M405.795,52.496L405.795,25.453L395.225,25.453L395.225,22.204L419.796,22.204L419.796,25.453L409.226,25.453L409.226,52.496L405.795,52.496Z" style="fill:rgb(51,51,51);fill-rule:nonzero;"/>
                <path d="M424.143,52.496L424.143,22.204L438.648,22.204C441.76,22.204 444.239,23.059 446.084,24.767C447.931,26.474 448.852,28.779 448.852,31.676C448.852,33.629 448.48,35.185 447.731,36.343C446.985,37.502 446.047,38.379 444.917,38.974C443.79,39.569 442.661,40.004 441.531,40.278L449.493,52.496L445.42,52.496L438.099,40.873L427.575,40.873L427.575,52.496L424.143,52.496ZM427.575,37.624L438.053,37.624C439.152,37.624 440.267,37.456 441.394,37.121C442.523,36.787 443.476,36.183 444.253,35.314C445.031,34.444 445.42,33.232 445.42,31.676C445.42,29.754 444.765,28.236 443.453,27.123C442.143,26.011 440.404,25.453 438.236,25.453L427.575,25.453L427.575,37.624Z" style="fill:rgb(51,51,51);fill-rule:nonzero;"/>
            </g>
            <g>
                <path d="M133.308,71.037L133.308,60.039L137.944,60.039C138.598,60.039 139.226,60.163 139.829,60.413C140.434,60.662 140.974,61.024 141.449,61.501C141.926,61.977 142.303,62.553 142.579,63.229C142.856,63.905 142.994,64.674 142.994,65.538C142.994,66.402 142.856,67.171 142.579,67.847C142.303,68.523 141.926,69.099 141.449,69.575C140.974,70.052 140.434,70.414 139.829,70.664C139.226,70.913 138.598,71.037 137.944,71.037L133.308,71.037ZM134.554,69.858L137.894,69.858C138.681,69.858 139.362,69.658 139.937,69.26C140.514,68.861 140.959,68.334 141.275,67.681C141.591,67.028 141.748,66.314 141.748,65.538C141.748,64.752 141.591,64.031 141.275,63.378C140.959,62.725 140.514,62.202 139.937,61.808C139.362,61.415 138.681,61.218 137.894,61.218L134.554,61.218L134.554,69.858Z" style="fill:rgb(145,145,145);fill-opacity:0.67;fill-rule:nonzero;"/>
                <path d="M144.672,61.335L144.672,59.706L146.018,59.706L146.018,61.335L144.672,61.335ZM144.722,71.037L144.722,62.73L145.968,62.73L145.968,71.037L144.722,71.037Z" style="fill:rgb(145,145,145);fill-opacity:0.67;fill-rule:nonzero;"/>
                <path d="M151.152,71.17C150.388,71.17 149.743,71.043 149.216,70.788C148.691,70.534 148.289,70.198 148.012,69.783C147.736,69.368 147.58,68.916 147.547,68.429L148.843,68.429C148.876,68.706 148.973,68.974 149.133,69.235C149.294,69.495 149.54,69.705 149.873,69.866C150.205,70.027 150.637,70.107 151.169,70.107C151.335,70.107 151.54,70.09 151.783,70.057C152.027,70.024 152.263,69.963 152.489,69.874C152.717,69.786 152.908,69.653 153.063,69.476C153.218,69.298 153.295,69.072 153.295,68.794C153.295,68.451 153.162,68.185 152.897,67.997C152.631,67.809 152.288,67.662 151.866,67.557C151.446,67.452 151,67.349 150.529,67.249C150.059,67.15 149.613,67.02 149.192,66.859C148.771,66.698 148.427,66.472 148.161,66.178C147.896,65.884 147.763,65.483 147.763,64.973C147.763,64.22 148.037,63.636 148.585,63.22C149.133,62.805 149.945,62.597 151.019,62.597C151.75,62.597 152.346,62.711 152.805,62.938C153.265,63.165 153.614,63.456 153.852,63.81C154.091,64.164 154.232,64.546 154.275,64.957L153.013,64.957C152.969,64.602 152.795,64.297 152.489,64.043C152.185,63.788 151.684,63.661 150.986,63.661C149.668,63.661 149.009,64.059 149.009,64.857C149.009,65.189 149.142,65.444 149.408,65.621C149.673,65.799 150.017,65.94 150.438,66.045C150.859,66.15 151.305,66.249 151.775,66.344C152.246,66.438 152.692,66.568 153.112,66.734C153.534,66.9 153.877,67.136 154.143,67.44C154.408,67.745 154.541,68.158 154.541,68.678C154.541,69.487 154.234,70.104 153.619,70.531C153.005,70.957 152.182,71.17 151.152,71.17Z" style="fill:rgb(145,145,145);fill-opacity:0.67;fill-rule:nonzero;"/>
                <path d="M157.033,71.037L157.033,63.827L155.339,63.827L155.339,62.73L157.033,62.73L157.033,59.756L158.28,59.756L158.28,62.73L160.19,62.73L160.19,63.827L158.28,63.827L158.28,71.037L157.033,71.037Z" style="fill:rgb(145,145,145);fill-opacity:0.67;fill-rule:nonzero;"/>
                <path d="M161.553,71.037L161.553,62.73L162.799,62.73L162.799,64.774C162.843,64.629 162.929,64.438 163.056,64.201C163.184,63.963 163.37,63.722 163.613,63.478C163.857,63.234 164.164,63.026 164.535,62.855C164.907,62.684 165.347,62.597 165.856,62.597L165.939,62.597L165.939,63.843L165.789,63.843C165.169,63.843 164.634,64.013 164.186,64.35C163.737,64.688 163.395,65.126 163.156,65.663C162.918,66.199 162.799,66.773 162.799,67.382L162.799,71.037L161.553,71.037Z" style="fill:rgb(145,145,145);fill-opacity:0.67;fill-rule:nonzero;"/>
                <path d="M167.235,61.335L167.235,59.706L168.58,59.706L168.58,61.335L167.235,61.335ZM167.284,71.037L167.284,62.73L168.53,62.73L168.53,71.037L167.284,71.037Z" style="fill:rgb(145,145,145);fill-opacity:0.67;fill-rule:nonzero;"/>
                <path d="M174.91,71.17C174.224,71.17 173.634,71.037 173.141,70.772C172.649,70.506 172.247,70.152 171.936,69.708L171.936,71.037L170.69,71.037L170.69,59.407L171.936,59.407L171.936,64.076C172.247,63.622 172.649,63.262 173.141,62.996C173.634,62.73 174.224,62.597 174.91,62.597C175.719,62.597 176.425,62.788 177.029,63.171C177.633,63.553 178.1,64.068 178.433,64.716C178.765,65.364 178.931,66.086 178.931,66.884C178.931,67.67 178.765,68.39 178.433,69.044C178.1,69.697 177.633,70.215 177.029,70.597C176.425,70.979 175.719,71.17 174.91,71.17ZM174.744,70.04C175.365,70.04 175.894,69.896 176.331,69.609C176.769,69.321 177.103,68.936 177.336,68.454C177.569,67.972 177.685,67.449 177.685,66.884C177.685,66.307 177.569,65.782 177.336,65.305C177.103,64.829 176.769,64.447 176.331,64.159C175.894,63.871 175.365,63.727 174.744,63.727C174.136,63.727 173.614,63.871 173.182,64.159C172.75,64.447 172.424,64.829 172.202,65.305C171.981,65.782 171.87,66.307 171.87,66.884C171.87,67.449 171.981,67.972 172.202,68.454C172.424,68.936 172.75,69.321 173.182,69.609C173.614,69.896 174.136,70.04 174.744,70.04Z" style="fill:rgb(145,145,145);fill-opacity:0.67;fill-rule:nonzero;"/>
                <path d="M183.816,71.17C183.251,71.17 182.714,71.034 182.204,70.763C181.695,70.492 181.282,70.087 180.966,69.55C180.651,69.014 180.493,68.351 180.493,67.565L180.493,62.73L181.739,62.73L181.739,67.532C181.739,68.285 181.958,68.891 182.395,69.351C182.833,69.811 183.39,70.04 184.065,70.04C184.53,70.04 184.952,69.932 185.327,69.717C185.704,69.501 186.007,69.205 186.233,68.828C186.46,68.451 186.574,68.014 186.574,67.515L186.574,62.73L187.82,62.73L187.82,71.037L186.574,71.037L186.574,69.741C186.274,70.14 185.909,70.478 185.477,70.755C185.045,71.032 184.492,71.17 183.816,71.17Z" style="fill:rgb(145,145,145);fill-opacity:0.67;fill-rule:nonzero;"/>
                <path d="M190.877,71.037L190.877,63.827L189.182,63.827L189.182,62.73L190.877,62.73L190.877,59.756L192.123,59.756L192.123,62.73L194.033,62.73L194.033,63.827L192.123,63.827L192.123,71.037L190.877,71.037Z" style="fill:rgb(145,145,145);fill-opacity:0.67;fill-rule:nonzero;"/>
                <path d="M198.918,71.17C198.077,71.17 197.34,70.979 196.708,70.597C196.077,70.215 195.587,69.697 195.238,69.044C194.889,68.39 194.714,67.67 194.714,66.884C194.714,66.086 194.881,65.364 195.213,64.716C195.545,64.068 196.022,63.553 196.642,63.171C197.263,62.788 197.994,62.597 198.835,62.597C199.688,62.597 200.421,62.788 201.036,63.171C201.651,63.553 202.124,64.068 202.457,64.716C202.789,65.364 202.955,66.086 202.955,66.884L202.955,67.382L195.994,67.382C196.06,67.869 196.218,68.316 196.467,68.72C196.716,69.124 197.052,69.445 197.472,69.683C197.894,69.921 198.381,70.04 198.934,70.04C199.522,70.04 200.014,69.911 200.413,69.65C200.812,69.389 201.122,69.055 201.344,68.645L202.706,68.645C202.418,69.387 201.961,69.994 201.335,70.464C200.71,70.935 199.904,71.17 198.918,71.17ZM196.01,66.219L201.659,66.219C201.549,65.51 201.25,64.918 200.762,64.441C200.275,63.965 199.632,63.727 198.835,63.727C198.037,63.727 197.398,63.965 196.916,64.441C196.434,64.918 196.133,65.51 196.01,66.219Z" style="fill:rgb(145,145,145);fill-opacity:0.67;fill-rule:nonzero;"/>
                <path d="M207.989,71.17C207.181,71.17 206.475,70.979 205.871,70.597C205.268,70.215 204.799,69.697 204.467,69.044C204.135,68.39 203.969,67.67 203.969,66.884C203.969,66.086 204.135,65.364 204.467,64.716C204.799,64.068 205.268,63.553 205.871,63.171C206.475,62.788 207.181,62.597 207.989,62.597C208.677,62.597 209.266,62.73 209.759,62.996C210.252,63.262 210.654,63.622 210.963,64.076L210.963,59.407L212.209,59.407L212.209,71.037L210.963,71.037L210.963,69.708C210.654,70.152 210.252,70.506 209.759,70.772C209.266,71.037 208.677,71.17 207.989,71.17ZM208.155,70.04C208.776,70.04 209.3,69.896 209.725,69.609C210.152,69.321 210.476,68.936 210.697,68.454C210.92,67.972 211.03,67.449 211.03,66.884C211.03,66.307 210.92,65.782 210.697,65.305C210.476,64.829 210.152,64.447 209.725,64.159C209.3,63.871 208.776,63.727 208.155,63.727C207.547,63.727 207.02,63.871 206.577,64.159C206.135,64.447 205.796,64.829 205.564,65.305C205.331,65.782 205.215,66.307 205.215,66.884C205.215,67.449 205.331,67.972 205.564,68.454C205.796,68.936 206.135,69.321 206.577,69.609C207.02,69.896 207.547,70.04 208.155,70.04Z" style="fill:rgb(145,145,145);fill-opacity:0.67;fill-rule:nonzero;"/>
                <path d="M222.792,71.17C221.696,71.17 220.749,70.918 219.951,70.414C219.154,69.911 218.542,69.232 218.116,68.379C217.69,67.527 217.476,66.58 217.476,65.538C217.476,64.497 217.69,63.55 218.116,62.697C218.542,61.844 219.154,61.165 219.951,60.662C220.749,60.158 221.696,59.906 222.792,59.906C223.623,59.906 224.371,60.052 225.035,60.346C225.7,60.64 226.265,61.041 226.73,61.551C227.195,62.06 227.544,62.652 227.777,63.328L226.464,63.328C226.188,62.652 225.75,62.116 225.152,61.717C224.554,61.318 223.801,61.119 222.892,61.119C222.006,61.119 221.25,61.315 220.624,61.708C219.999,62.102 219.526,62.631 219.204,63.295C218.883,63.96 218.722,64.707 218.722,65.538C218.722,66.357 218.883,67.103 219.204,67.773C219.526,68.442 219.999,68.974 220.624,69.368C221.25,69.761 222.006,69.957 222.892,69.957C223.801,69.957 224.554,69.758 225.152,69.359C225.75,68.961 226.188,68.424 226.464,67.748L227.777,67.748C227.544,68.412 227.195,69.002 226.73,69.517C226.265,70.032 225.7,70.436 225.035,70.73C224.371,71.024 223.623,71.17 222.792,71.17Z" style="fill:rgb(145,145,145);fill-opacity:0.67;fill-rule:nonzero;"/>
                <path d="M232.977,71.17C232.136,71.17 231.405,70.979 230.784,70.597C230.164,70.215 229.687,69.697 229.355,69.044C229.023,68.39 228.857,67.67 228.857,66.884C228.857,66.086 229.023,65.364 229.355,64.716C229.687,64.068 230.164,63.553 230.784,63.171C231.405,62.788 232.136,62.597 232.977,62.597C233.831,62.597 234.564,62.788 235.178,63.171C235.793,63.553 236.267,64.068 236.599,64.716C236.931,65.364 237.097,66.086 237.097,66.884C237.097,67.67 236.931,68.39 236.599,69.044C236.267,69.697 235.793,70.215 235.178,70.597C234.564,70.979 233.831,71.17 232.977,71.17ZM232.977,70.04C233.598,70.04 234.121,69.896 234.547,69.609C234.974,69.321 235.298,68.936 235.519,68.454C235.741,67.972 235.851,67.449 235.851,66.884C235.851,66.307 235.741,65.782 235.519,65.305C235.298,64.829 234.974,64.447 234.547,64.159C234.121,63.871 233.598,63.727 232.977,63.727C232.368,63.727 231.847,63.871 231.415,64.159C230.983,64.447 230.657,64.829 230.435,65.305C230.214,65.782 230.103,66.307 230.103,66.884C230.103,67.449 230.214,67.972 230.435,68.454C230.657,68.936 230.983,69.321 231.415,69.609C231.847,69.896 232.368,70.04 232.977,70.04Z" style="fill:rgb(145,145,145);fill-opacity:0.67;fill-rule:nonzero;"/>
                <path d="M238.742,71.037L238.742,62.73L239.988,62.73L239.988,63.993C240.177,63.661 240.476,63.345 240.885,63.046C241.296,62.747 241.839,62.597 242.514,62.597C243.068,62.597 243.58,62.744 244.05,63.038C244.522,63.331 244.889,63.744 245.155,64.275C245.266,64.087 245.441,63.86 245.679,63.594C245.917,63.328 246.23,63.096 246.617,62.896C247.006,62.697 247.471,62.597 248.013,62.597C248.544,62.597 249.043,62.735 249.508,63.013C249.973,63.29 250.353,63.686 250.646,64.201C250.94,64.716 251.086,65.322 251.086,66.02L251.086,71.037L249.84,71.037L249.84,66.053C249.84,65.355 249.644,64.794 249.251,64.367C248.858,63.94 248.368,63.727 247.78,63.727C247.172,63.727 246.645,63.932 246.202,64.342C245.76,64.752 245.537,65.327 245.537,66.07L245.537,71.037L244.291,71.037L244.291,66.053C244.291,65.355 244.095,64.794 243.701,64.367C243.309,63.94 242.819,63.727 242.231,63.727C241.623,63.727 241.096,63.932 240.653,64.342C240.21,64.752 239.988,65.327 239.988,66.07L239.988,71.037L238.742,71.037Z" style="fill:rgb(145,145,145);fill-opacity:0.67;fill-rule:nonzero;"/>
                <path d="M253.163,74.327L253.163,62.73L254.409,62.73L254.409,64.059C254.72,63.606 255.122,63.248 255.614,62.988C256.107,62.727 256.697,62.597 257.383,62.597C258.192,62.597 258.898,62.788 259.502,63.171C260.106,63.553 260.573,64.068 260.905,64.716C261.238,65.364 261.404,66.086 261.404,66.884C261.404,67.67 261.238,68.39 260.905,69.044C260.573,69.697 260.106,70.215 259.502,70.597C258.898,70.979 258.192,71.17 257.383,71.17C256.697,71.17 256.107,71.034 255.614,70.763C255.122,70.492 254.72,70.135 254.409,69.692L254.409,74.327L253.163,74.327ZM257.217,70.04C257.838,70.04 258.367,69.896 258.804,69.609C259.242,69.321 259.576,68.936 259.809,68.454C260.042,67.972 260.158,67.449 260.158,66.884C260.158,66.307 260.042,65.782 259.809,65.305C259.576,64.829 259.242,64.447 258.804,64.159C258.367,63.871 257.838,63.727 257.217,63.727C256.609,63.727 256.087,63.871 255.655,64.159C255.223,64.447 254.897,64.829 254.675,65.305C254.454,65.782 254.343,66.307 254.343,66.884C254.343,67.449 254.454,67.972 254.675,68.454C254.897,68.936 255.223,69.321 255.655,69.609C256.087,69.896 256.609,70.04 257.217,70.04Z" style="fill:rgb(145,145,145);fill-opacity:0.67;fill-rule:nonzero;"/>
                <path d="M266.288,71.17C265.724,71.17 265.187,71.034 264.677,70.763C264.168,70.492 263.755,70.087 263.439,69.55C263.123,69.014 262.966,68.351 262.966,67.565L262.966,62.73L264.212,62.73L264.212,67.532C264.212,68.285 264.431,68.891 264.868,69.351C265.306,69.811 265.863,70.04 266.538,70.04C267.003,70.04 267.424,69.932 267.8,69.717C268.177,69.501 268.479,69.205 268.706,68.828C268.933,68.451 269.046,68.014 269.046,67.515L269.046,62.73L270.292,62.73L270.292,71.037L269.046,71.037L269.046,69.741C268.747,70.14 268.382,70.478 267.95,70.755C267.518,71.032 266.964,71.17 266.288,71.17Z" style="fill:rgb(145,145,145);fill-opacity:0.67;fill-rule:nonzero;"/>
                <path d="M273.35,71.037L273.35,63.827L271.655,63.827L271.655,62.73L273.35,62.73L273.35,59.756L274.596,59.756L274.596,62.73L276.506,62.73L276.506,63.827L274.596,63.827L274.596,71.037L273.35,71.037Z" style="fill:rgb(145,145,145);fill-opacity:0.67;fill-rule:nonzero;"/>
                <path d="M277.819,61.335L277.819,59.706L279.164,59.706L279.164,61.335L277.819,61.335ZM277.869,71.037L277.869,62.73L279.115,62.73L279.115,71.037L277.869,71.037Z" style="fill:rgb(145,145,145);fill-opacity:0.67;fill-rule:nonzero;"/>
                <path d="M281.274,71.037L281.274,62.73L282.521,62.73L282.521,64.026C282.82,63.627 283.185,63.29 283.617,63.013C284.049,62.735 284.604,62.597 285.279,62.597C285.855,62.597 286.395,62.733 286.898,63.004C287.403,63.275 287.812,63.68 288.128,64.217C288.444,64.754 288.601,65.417 288.601,66.203L288.601,71.037L287.355,71.037L287.355,66.236C287.355,65.483 287.139,64.877 286.707,64.417C286.275,63.957 285.717,63.727 285.029,63.727C284.564,63.727 284.144,63.832 283.767,64.043C283.391,64.254 283.089,64.549 282.861,64.932C282.635,65.314 282.521,65.754 282.521,66.252L282.521,71.037L281.274,71.037Z" style="fill:rgb(145,145,145);fill-opacity:0.67;fill-rule:nonzero;"/>
                <path d="M294.483,74.46C293.442,74.46 292.595,74.236 291.941,73.787C291.288,73.338 290.844,72.754 290.612,72.034L291.991,72.034C292.157,72.444 292.445,72.762 292.855,72.99C293.265,73.217 293.785,73.33 294.416,73.33C295.37,73.33 296.064,73.106 296.501,72.657C296.94,72.209 297.158,71.558 297.158,70.705L297.158,69.559C296.848,70.002 296.446,70.359 295.953,70.63C295.461,70.901 294.871,71.037 294.184,71.037C293.376,71.037 292.67,70.851 292.065,70.481C291.462,70.11 290.994,69.603 290.662,68.961C290.329,68.318 290.163,67.603 290.163,66.817C290.163,66.02 290.329,65.302 290.662,64.666C290.994,64.029 291.462,63.525 292.065,63.154C292.67,62.783 293.376,62.597 294.184,62.597C294.871,62.597 295.461,62.727 295.953,62.988C296.446,63.248 296.848,63.606 297.158,64.059L297.158,62.73L298.404,62.73L298.404,70.788C298.404,71.973 298.063,72.882 297.382,73.513C296.701,74.144 295.735,74.46 294.483,74.46ZM294.35,69.908C294.959,69.908 295.478,69.769 295.903,69.492C296.33,69.215 296.657,68.841 296.884,68.371C297.111,67.9 297.224,67.382 297.224,66.817C297.224,66.241 297.111,65.721 296.884,65.256C296.657,64.79 296.33,64.42 295.903,64.142C295.478,63.865 294.959,63.727 294.35,63.727C293.741,63.727 293.215,63.865 292.772,64.142C292.329,64.42 291.991,64.79 291.758,65.256C291.525,65.721 291.409,66.241 291.409,66.817C291.409,67.382 291.525,67.9 291.758,68.371C291.991,68.841 292.329,69.215 292.772,69.492C293.215,69.769 293.741,69.908 294.35,69.908Z" style="fill:rgb(145,145,145);fill-opacity:0.67;fill-rule:nonzero;"/>
                <path d="M308.306,71.17C307.221,71.17 306.34,71.024 305.664,70.73C304.989,70.436 304.482,70.029 304.144,69.509C303.806,68.989 303.61,68.401 303.554,67.748L304.85,67.748C304.883,68.279 305.061,68.708 305.382,69.035C305.704,69.362 306.127,69.603 306.653,69.758C307.179,69.913 307.758,69.991 308.389,69.991C309.319,69.991 310.057,69.828 310.599,69.501C311.142,69.173 311.413,68.69 311.413,68.047C311.413,67.659 311.278,67.346 311.006,67.108C310.735,66.87 310.374,66.673 309.926,66.518C309.477,66.364 308.987,66.222 308.455,66.095C307.924,65.967 307.39,65.832 306.852,65.688C306.315,65.543 305.822,65.36 305.373,65.139C304.925,64.918 304.566,64.633 304.293,64.284C304.022,63.935 303.886,63.489 303.886,62.946C303.886,62.049 304.233,61.318 304.925,60.753C305.617,60.188 306.651,59.906 308.023,59.906C308.998,59.906 309.801,60.052 310.432,60.346C311.064,60.64 311.537,61.024 311.853,61.501C312.169,61.977 312.343,62.492 312.376,63.046L311.097,63.046C311.031,62.492 310.754,62.024 310.266,61.642C309.779,61.26 309.032,61.069 308.023,61.069C307.403,61.069 306.9,61.13 306.511,61.252C306.124,61.373 305.828,61.531 305.623,61.725C305.418,61.919 305.28,62.121 305.207,62.331C305.136,62.542 305.099,62.742 305.099,62.93C305.099,63.295 305.235,63.591 305.506,63.818C305.778,64.046 306.138,64.234 306.586,64.383C307.035,64.533 307.531,64.669 308.073,64.79C308.616,64.912 309.156,65.048 309.693,65.197C310.231,65.347 310.723,65.535 311.172,65.762C311.62,65.99 311.981,66.28 312.252,66.635C312.524,66.989 312.659,67.443 312.659,67.997C312.659,69.016 312.271,69.8 311.496,70.348C310.721,70.896 309.658,71.17 308.306,71.17Z" style="fill:rgb(145,145,145);fill-opacity:0.67;fill-rule:nonzero;"/>
                <path d="M315.184,74.327L316.696,70.921L313.307,62.73L314.686,62.73L317.361,69.542L320.085,62.73L321.448,62.73L316.53,74.327L315.184,74.327Z" style="fill:rgb(145,145,145);fill-opacity:0.67;fill-rule:nonzero;"/>
                <path d="M325.601,71.17C324.837,71.17 324.192,71.043 323.666,70.788C323.14,70.534 322.738,70.198 322.461,69.783C322.185,69.368 322.029,68.916 321.996,68.429L323.292,68.429C323.325,68.706 323.423,68.974 323.583,69.235C323.744,69.495 323.99,69.705 324.322,69.866C324.654,70.027 325.086,70.107 325.618,70.107C325.784,70.107 325.99,70.09 326.233,70.057C326.477,70.024 326.712,69.963 326.939,69.874C327.166,69.786 327.357,69.653 327.512,69.476C327.668,69.298 327.744,69.072 327.744,68.794C327.744,68.451 327.612,68.185 327.346,67.997C327.08,67.809 326.737,67.662 326.316,67.557C325.895,67.452 325.45,67.349 324.978,67.249C324.508,67.15 324.062,67.02 323.641,66.859C323.22,66.698 322.876,66.472 322.611,66.178C322.345,65.884 322.212,65.483 322.212,64.973C322.212,64.22 322.486,63.636 323.034,63.22C323.583,62.805 324.395,62.597 325.468,62.597C326.199,62.597 326.795,62.711 327.254,62.938C327.714,63.165 328.063,63.456 328.301,63.81C328.54,64.164 328.681,64.546 328.725,64.957L327.462,64.957C327.418,64.602 327.244,64.297 326.939,64.043C326.634,63.788 326.133,63.661 325.435,63.661C324.117,63.661 323.458,64.059 323.458,64.857C323.458,65.189 323.591,65.444 323.857,65.621C324.123,65.799 324.466,65.94 324.887,66.045C325.308,66.15 325.754,66.249 326.224,66.344C326.696,66.438 327.141,66.568 327.562,66.734C327.983,66.9 328.326,67.136 328.592,67.44C328.858,67.745 328.99,68.158 328.99,68.678C328.99,69.487 328.683,70.104 328.068,70.531C327.454,70.957 326.631,71.17 325.601,71.17Z" style="fill:rgb(145,145,145);fill-opacity:0.67;fill-rule:nonzero;"/>
                <path d="M331.483,71.037L331.483,63.827L329.788,63.827L329.788,62.73L331.483,62.73L331.483,59.756L332.729,59.756L332.729,62.73L334.639,62.73L334.639,63.827L332.729,63.827L332.729,71.037L331.483,71.037Z" style="fill:rgb(145,145,145);fill-opacity:0.67;fill-rule:nonzero;"/>
                <path d="M339.524,71.17C338.683,71.17 337.946,70.979 337.314,70.597C336.683,70.215 336.193,69.697 335.844,69.044C335.495,68.39 335.321,67.67 335.321,66.884C335.321,66.086 335.487,65.364 335.819,64.716C336.151,64.068 336.628,63.553 337.248,63.171C337.869,62.788 338.6,62.597 339.441,62.597C340.294,62.597 341.027,62.788 341.642,63.171C342.257,63.553 342.73,64.068 343.063,64.716C343.395,65.364 343.561,66.086 343.561,66.884L343.561,67.382L336.6,67.382C336.666,67.869 336.824,68.316 337.073,68.72C337.323,69.124 337.658,69.445 338.078,69.683C338.5,69.921 338.987,70.04 339.541,70.04C340.128,70.04 340.62,69.911 341.019,69.65C341.418,69.389 341.728,69.055 341.95,68.645L343.312,68.645C343.024,69.387 342.567,69.994 341.941,70.464C341.316,70.935 340.51,71.17 339.524,71.17ZM336.616,66.219L342.265,66.219C342.155,65.51 341.856,64.918 341.368,64.441C340.881,63.965 340.238,63.727 339.441,63.727C338.643,63.727 338.004,63.965 337.522,64.441C337.04,64.918 336.739,65.51 336.616,66.219Z" style="fill:rgb(145,145,145);fill-opacity:0.67;fill-rule:nonzero;"/>
                <path d="M345.09,71.037L345.09,62.73L346.336,62.73L346.336,63.993C346.525,63.661 346.824,63.345 347.233,63.046C347.643,62.747 348.186,62.597 348.861,62.597C349.416,62.597 349.928,62.744 350.398,63.038C350.869,63.331 351.237,63.744 351.503,64.275C351.614,64.087 351.788,63.86 352.026,63.594C352.265,63.328 352.577,63.096 352.965,62.896C353.353,62.697 353.818,62.597 354.36,62.597C354.892,62.597 355.39,62.735 355.856,63.013C356.321,63.29 356.701,63.686 356.994,64.201C357.288,64.716 357.434,65.322 357.434,66.02L357.434,71.037L356.188,71.037L356.188,66.053C356.188,65.355 355.992,64.794 355.598,64.367C355.206,63.94 354.716,63.727 354.128,63.727C353.519,63.727 352.993,63.932 352.549,64.342C352.107,64.752 351.885,65.327 351.885,66.07L351.885,71.037L350.639,71.037L350.639,66.053C350.639,65.355 350.443,64.794 350.049,64.367C349.656,63.94 349.166,63.727 348.579,63.727C347.97,63.727 347.444,63.932 347,64.342C346.558,64.752 346.336,65.327 346.336,66.07L346.336,71.037L345.09,71.037Z" style="fill:rgb(145,145,145);fill-opacity:0.67;fill-rule:nonzero;"/>
            </g>
        </g>
    </g>
</svg>
